<?xml version="1.0" encoding="utf-8"?>
<!-- Generator: Adobe Illustrator 24.0.0, SVG Export Plug-In . SVG Version: 6.00 Build 0)  -->
<svg version="1.1" id="Calque_1" xmlns="http://www.w3.org/2000/svg" xmlns:xlink="http://www.w3.org/1999/xlink" x="0px" y="0px"
	 viewBox="0 0 453.54 367.58" style="enable-background:new 0 0 453.54 367.58;" xml:space="preserve">
<style type="text/css">
	.st0{fill:#A42020;}
	.st1{fill:#FFFFFF;stroke:#000000;stroke-width:2;stroke-miterlimit:10;}
	.st2{fill:#FFFFFF;}
	.st3{font-family:'MicrosoftTaiLe-Bold';}
	.st4{font-size:32.262px;}
	.st5{fill:#9A1915;}
</style>
<path class="st0" d="M130.42,213.9c0,0-1.17,0.06-3.2,0.16c-9.41,0.45-37.24,1.6-52.55,0.36c-6.22-0.5-12.52-0.55-18.62-1.7
	c-17.59-3.32-26.74-13.96-27.59-31.83c-0.36-7.65-0.06-15.32-0.06-23.58c-4.1,0-7.6,0-11.11,0c-0.09-0.33-0.17-0.66-0.26-0.99
	c6.37-4.67,12.75-9.33,19.12-14c4.72-3.46,10.82-8.53,10.82-8.53l9.25,8.61c0,0,12.6,9.22,18.72,14.78c-3.48,0-6.95,0-10.56,0
	c0,6.42-0.37,12.21,0.11,17.93c0.42,5.07,3.28,8.1,8.54,8.32c10.69,0.44,21.44,0.51,32.12-0.08c6.23-0.34,9.28-4.82,9.29-11.57
	c0.05-24.4,0.03-48.79,0.03-73.19c0-1.71,0-3.41,0-5.31c12.39,0,24.36,0,36.86,0c0,1.95,0,3.65,0,5.35
	c0,21.49,0.03,42.98-0.04,64.47c-0.01,2.83,0.31,4.33,0.31,4.33 M149.91,168.82c-10.63-2.46-19.39,1.11-21.74,9.01
	c-0.59,1.97-0.58,4.11-0.96,7.04c4.74-1.62,7.6-0.46,9.74-7.22c0.34-1.08,7.32-6.06,12.95,0c2.81,3.02,1.39,5.3,1.15,5.83
	c-0.81,1.77-3.91,1.9-5.57,2.78c-2.78,1.47-5.95,2.2-8.97,3.21c-5.13,1.72-8.48,5.06-8.92,10.58c-0.29,3.73-0.06,7.51-0.06,11.99"/>
<path d="M166.18,175.16c0-1.89,0-3.41,0-4.92c0-23.67,0-47.34,0-71.01c0-5.84,0.01-5.83,6.04-5.83c8.86,0.01,17.72,0.22,26.57-0.09
	c4.18-0.15,5.2,1.35,5.11,5.26c-0.24,11.18-0.13,22.36-0.14,33.54c0,1.27,0.13,2.53,0.22,4.27c3.77,0,7.22,0,10.68,0
	c13.5,0,27.01-0.1,40.51,0.07c3.5,0.04,4.82-0.84,4.74-4.58c-0.23-11.32,0.06-22.65-0.16-33.98c-0.08-3.8,1.37-4.63,4.82-4.55
	c9.29,0.2,18.59,0.29,27.88,0.01c3.94-0.12,4.91,1.17,4.9,4.94c-0.12,36.16-0.08,72.32-0.07,108.47c0,7.7,0.03,7.7-7.76,7.7
	c-9.7,0-19.4,0-29.69,0c0-13.85-0.14-27.05,0.08-40.25c0.07-4.07-0.91-5.5-5.28-5.42c-14.95,0.29-29.91,0.12-44.87,0.12
	c-1.73,0-3.46,0-5.76,0c0,15.2,0,30.05,0,45.23c-1.79,0.13-3.03,0.32-4.27,0.3h-33.55L166.18,175.16z M165.33,185.41 M165.94,200.97
	c0-3.75,0-7.29,0-10.52"/>
<path d="M301.91,214.78c0-40.92,0-81.23,0-121.94c2.36,0,4.49,0,6.63,0c31.66,0,63.32-0.03,94.97,0.06
	c3.73,0.01,7.52,0.43,11.19,1.15c12.57,2.47,19.33,10.67,20.77,22.97c0.73,6.23,0.39,12.69-0.28,18.96
	c-1.06,9.99-7.49,15.16-17.03,16.94c-0.26,0.05-0.51,0.22-0.74,0.38c-0.09,0.06-0.09,0.24-0.07,0.18c3.59,1.69,7.74,2.72,10.55,5.24
	c2.95,2.64,5.47,6.43,6.66,10.2c2.42,7.66,2.18,15.57,0.58,23.58c-2.76,13.83-12.47,20.95-25.36,21.35
	c-23.64,0.74-47.3,0.71-70.95,0.91C326.66,214.86,314.47,214.78,301.91,214.78z M339.21,121.36c0,6.23-0.11,11.73,0.11,17.22
	c0.04,0.95,1.5,2.64,2.3,2.63c15.95-0.07,31.9-0.13,47.83-0.69c6.17-0.22,8.95-4.19,8.55-10.27c-0.41-6.2-2.9-8.72-9.5-8.82
	c-10.45-0.17-20.91-0.06-31.36-0.07C351.36,121.35,345.57,121.36,339.21,121.36z M339.49,186.1c16.76,0,33.26,0.21,49.75-0.1
	c6.37-0.12,9.12-3.83,8.75-9.95c-0.39-6.37-3.17-9.26-9.54-9.35c-15.09-0.21-30.18-0.27-45.26-0.35c-1.24-0.01-2.48,0.27-3.69,0.41
	C339.49,173.39,339.49,179.58,339.49,186.1z"/>
<rect x="28.33" y="231.42" width="406.39" height="35.29"/>
<path d="M232.54,228.69c-66.51,0-133.01-0.01-199.52,0.04c-3.15,0-5.41-0.17-5.03-4.32c0.23-2.57,1.04-3.77,3.68-3.45
	c0.57,0.07,1.16,0.01,1.74,0.01c132.58,0,265.15-0.01,397.73,0.06c2.02,0,5.16-1.59,5.35,2.86c0.16,3.79-0.97,4.89-4.86,4.89
	C365.27,228.66,298.91,228.69,232.54,228.69z"/>
<path d="M436.27,269.71c0,2.4,0,4.38,0,6.89c-1.74,0.09-3.41,0.25-5.08,0.25c-132.53,0.01-265.05,0.01-397.58,0.01
	c-6.12,0-6.49-0.55-4.79-7.15C164.44,269.71,300.11,269.71,436.27,269.71z"/>
<path class="st1" d="M124.81,214.04c0-4.8-0.27-8.85,0.06-12.86c0.5-5.93,4.32-9.51,10.18-11.35c3.45-1.08,7.07-1.86,10.24-3.44
	c1.9-0.94,4.29-1.55,4.42-3.72c0.12-2.05-0.51-3.06-1.99-4.66c-2.83-3.05-8.29-1.67-9.37,1.45c-2.68,7.74-9.26,5.33-13.93,5.45
	c0.43-3.14,0.42-5.44,1.09-7.55c2.68-8.48,12.69-12.3,24.82-9.66c8.31,1.81,13.59,9.21,11.53,17.43c-0.71,2.85-3.2,5.97-5.84,7.58
	c-3.92,2.39-8.5,4.22-13.1,5.27c-4.82,1.11-6.88,3.76-6.88,3.76c-0.93,1.2-0.02,1.64,0.65,1.64l25.05,0v10.68H124.81z"/>
<text transform="matrix(1 0 0 1 40.1812 259.9314)" class="st2 st3 st4">Editeur Sécurité Routière</text>
<polygon class="st5" points="47.1,133.21 47.1,159.67 64.17,159.67 64.17,157.21 77.26,157.21 "/>
</svg>
